<svg width="264" height="122" viewBox="0 0 264 122" fill="none" xmlns="http://www.w3.org/2000/svg">
<path d="M7.55079 100.98C7.1388 100.999 6.72713 100.936 6.33926 100.796C5.9514 100.656 5.59495 100.441 5.29027 100.163C4.98558 99.8848 4.73863 99.5495 4.56351 99.1761C4.38839 98.8027 4.28854 98.3985 4.26965 97.9865C4.25064 97.574 4.13693 93.8235 5.95787 89.3158C7.67103 85.0774 11.4732 79.3726 19.8665 76.2718C31.737 71.8854 31.3706 60.8476 31.3656 60.7366C31.3356 59.9093 31.6333 59.1037 32.1941 58.4948C32.7549 57.886 33.5333 57.5231 34.3602 57.4852C35.1871 57.4472 35.9955 57.7373 36.6097 58.2922C37.2239 58.8472 37.5942 59.6222 37.64 60.4486C37.659 60.8612 37.7727 64.6117 35.9518 69.1193C35.2679 70.8143 34.3789 72.4191 33.3046 73.8979C31.0425 77.0082 27.5204 80.1399 22.0432 82.1634C10.1722 86.5495 10.539 97.5876 10.544 97.6986C10.563 98.1106 10.5006 98.5223 10.3605 98.9102C10.2203 99.2981 10.0051 99.6546 9.72714 99.9593C9.44918 100.264 9.11391 100.511 8.74048 100.686C8.36706 100.861 7.96279 100.961 7.55079 100.98ZM43.2179 69.358C43.2231 69.4692 43.5893 80.5069 31.7187 84.8932C23.3258 87.994 19.5233 93.6988 17.8101 97.9373C15.9893 102.445 16.1029 106.195 16.1219 106.608C16.137 107.023 16.2341 107.43 16.4076 107.807C16.5811 108.184 16.8276 108.523 17.1328 108.804C17.438 109.085 17.7959 109.303 18.1858 109.445C18.5757 109.587 18.9899 109.65 19.4044 109.631C19.8189 109.612 20.2256 109.511 20.6008 109.334C20.9761 109.157 21.3126 108.907 21.5907 108.599C21.8689 108.292 22.0834 107.932 22.2216 107.54C22.3599 107.149 22.4192 106.734 22.3963 106.32C22.3911 106.209 22.0249 95.1712 33.8955 90.7848C39.3727 88.7614 42.8948 85.6297 45.1571 82.5195C46.2313 81.0407 47.1202 79.4358 47.804 77.7408C49.6248 73.2333 49.5113 69.4826 49.4923 69.0701C49.4464 68.2436 49.0762 67.4686 48.462 66.9137C47.8478 66.3587 47.0394 66.0687 46.2125 66.1066C45.3856 66.1446 44.6071 66.5074 44.0463 67.1163C43.4856 67.7252 43.1878 68.5308 43.2179 69.358ZM55.0702 77.9795C55.0751 78.0905 55.442 89.1286 43.571 93.5147C35.1781 96.6154 31.3756 102.32 29.6624 106.559C27.8416 111.066 27.9552 114.817 27.9742 115.229C27.9892 115.644 28.0863 116.052 28.2599 116.429C28.4334 116.806 28.6799 117.144 28.9851 117.425C29.2903 117.707 29.6482 117.924 30.0381 118.066C30.428 118.208 30.8422 118.272 31.2567 118.253C31.6712 118.234 32.0778 118.133 32.4531 117.956C32.8284 117.779 33.1648 117.529 33.443 117.221C33.7212 116.913 33.9356 116.553 34.0739 116.162C34.2121 115.771 34.2715 115.356 34.2485 114.942C34.2436 114.83 33.8771 103.793 45.7477 99.4063C51.2249 97.3828 54.747 94.2511 57.0094 91.1409C58.0835 89.6621 58.9725 88.0573 59.6563 86.3622C61.4771 81.8548 61.3635 78.1041 61.3445 77.6915C61.3295 77.2769 61.2324 76.8693 61.0588 76.4924C60.8853 76.1154 60.6388 75.7766 60.3336 75.4955C60.0284 75.2144 59.6705 74.9965 59.2806 74.8545C58.8907 74.7126 58.4765 74.6493 58.062 74.6683C57.6475 74.6873 57.2409 74.7883 56.8656 74.9654C56.4903 75.1425 56.1539 75.3922 55.8757 75.7001C55.5975 76.0079 55.3831 76.3679 55.2448 76.7591C55.1066 77.1504 55.0472 77.5651 55.0702 77.9795Z" fill="#041373"/>
<rect x="4" width="252" height="83" rx="26" fill="#041373"/>
<path d="M16.5 38.3127L23.675 38.6627C24.099 34.8318 25.3134 31.1305 27.2412 27.793C29.169 24.4554 31.7684 21.5542 34.875 19.2727L30.955 13.2527C30.01 11.5727 30.5 9.43772 32.25 8.45772C34 7.51272 36.065 8.07272 37.045 9.75272L40.3 16.1227C43.838 14.6017 47.6488 13.8172 51.5 13.8172C55.3512 13.8172 59.162 14.6017 62.7 16.1227L65.955 9.75272C66.935 8.07272 69 7.51272 70.75 8.45772C72.5 9.43772 72.99 11.5727 72.045 13.2527L68.125 19.2727C71.2316 21.5542 73.831 24.4554 75.7588 27.793C77.6866 31.1305 78.901 34.8318 79.325 38.6627L86.5 38.3127C87.4283 38.3127 88.3185 38.6815 88.9749 39.3378C89.6313 39.9942 90 40.8845 90 41.8127C90 42.741 89.6313 43.6312 88.9749 44.2876C88.3185 44.944 87.4283 45.3127 86.5 45.3127L79.325 44.9627C78.901 48.7936 77.6866 52.4949 75.7588 55.8325C73.831 59.17 71.2316 62.0713 68.125 64.3527L72.045 70.3727C72.99 72.0527 72.5 74.1877 70.75 75.1677C69 76.1127 66.935 75.5527 65.955 73.8727L62.7 67.5027C59.162 69.0238 55.3512 69.8082 51.5 69.8082C47.6488 69.8082 43.838 69.0238 40.3 67.5027L37.045 73.8727C36.065 75.5527 34 76.1127 32.25 75.1677C30.5 74.1877 30.01 72.0527 30.955 70.3727L34.875 64.3527C31.7684 62.0713 29.169 59.17 27.2412 55.8325C25.3134 52.4949 24.099 48.7936 23.675 44.9627L16.5 45.3127C15.5717 45.3127 14.6815 44.944 14.0251 44.2876C13.3687 43.6312 13 42.741 13 41.8127C13 40.8845 13.3687 39.9942 14.0251 39.3378C14.6815 38.6815 15.5717 38.3127 16.5 38.3127ZM41.245 39.5377C41.7 37.4027 42.855 35.5127 44.5 34.0777L38.69 25.1877C34.2988 28.5579 31.4178 33.5273 30.675 39.0127L41.245 39.5377ZM51.5 31.3127C52.62 31.3127 53.67 31.4877 54.65 31.8027L59.48 22.3877C57.03 21.3727 54.335 20.8127 51.5 20.8127C48.665 20.8127 45.97 21.3727 43.52 22.3877L48.35 31.8027C49.33 31.4877 50.38 31.3127 51.5 31.3127ZM61.755 39.5377L72.325 39.0127C71.5822 33.5273 68.7012 28.5579 64.31 25.1877L58.5 34.0777C60.145 35.5127 61.3 37.4027 61.755 39.5377ZM61.755 44.0877C61.3 46.2227 60.145 48.1127 58.5 49.5477L64.31 58.4377C68.7012 55.0675 71.5822 50.0981 72.325 44.6127L61.755 44.0877ZM51.5 52.3127C50.38 52.3127 49.33 52.1377 48.315 51.8227L43.52 61.2377C45.97 62.2527 48.665 62.8127 51.5 62.8127C54.335 62.8127 57.03 62.2527 59.48 61.2377L54.685 51.8227C53.67 52.1377 52.62 52.3127 51.5 52.3127ZM41.245 44.0877L30.675 44.6127C31.445 50.2127 34.385 55.1477 38.69 58.4377L44.5 49.5477C42.855 48.1127 41.7 46.2227 41.245 44.0877Z" fill="white"/>
<path d="M106.074 33.7324H110.064V23.1504H112.78V36H96.6172V23.1504H99.3418V33.7324H103.332V23.1504H106.074V33.7324ZM122.255 26.1738H125.208L121.314 30.8848L125.551 36H122.51L118.493 31.0166V36H115.812V26.1738H118.493V30.9463L122.255 26.1738ZM129.093 31.0693C129.093 32.042 129.251 32.7773 129.567 33.2754C129.89 33.7734 130.411 34.0225 131.132 34.0225C131.847 34.0225 132.359 33.7764 132.67 33.2842C132.986 32.7861 133.145 32.0479 133.145 31.0693C133.145 30.0967 132.986 29.3672 132.67 28.8809C132.354 28.3945 131.835 28.1514 131.114 28.1514C130.399 28.1514 129.884 28.3945 129.567 28.8809C129.251 29.3613 129.093 30.0908 129.093 31.0693ZM135.887 31.0693C135.887 32.6689 135.465 33.9199 134.621 34.8223C133.777 35.7246 132.603 36.1758 131.097 36.1758C130.153 36.1758 129.321 35.9707 128.601 35.5605C127.88 35.1445 127.326 34.5498 126.939 33.7764C126.553 33.0029 126.359 32.1006 126.359 31.0693C126.359 29.4639 126.778 28.2158 127.616 27.3252C128.454 26.4346 129.632 25.9893 131.149 25.9893C132.093 25.9893 132.925 26.1943 133.646 26.6045C134.366 27.0146 134.92 27.6035 135.307 28.3711C135.693 29.1387 135.887 30.0381 135.887 31.0693ZM146.899 36H144.219V28.1865H141.749C141.562 30.3838 141.333 32.0244 141.063 33.1084C140.794 34.1865 140.434 34.9688 139.982 35.4551C139.537 35.9355 138.951 36.1758 138.225 36.1758C137.604 36.1758 137.094 36.082 136.695 35.8945V33.75C136.982 33.8672 137.27 33.9258 137.557 33.9258C137.891 33.9258 138.169 33.6855 138.392 33.2051C138.62 32.7246 138.822 31.9248 138.998 30.8057C139.18 29.6807 139.335 28.1367 139.464 26.1738H146.899V36ZM155.961 36L155.442 34.6641H155.372C154.921 35.2324 154.455 35.6279 153.975 35.8506C153.5 36.0674 152.879 36.1758 152.111 36.1758C151.168 36.1758 150.424 35.9062 149.879 35.3672C149.34 34.8281 149.07 34.0605 149.07 33.0645C149.07 32.0215 149.434 31.2539 150.16 30.7617C150.893 30.2637 151.994 29.9883 153.465 29.9355L155.17 29.8828V29.4521C155.17 28.4561 154.66 27.958 153.641 27.958C152.855 27.958 151.933 28.1953 150.872 28.6699L149.984 26.8594C151.115 26.2676 152.369 25.9717 153.746 25.9717C155.064 25.9717 156.075 26.2588 156.778 26.833C157.481 27.4072 157.833 28.2803 157.833 29.4521V36H155.961ZM155.17 31.4473L154.133 31.4824C153.354 31.5059 152.773 31.6465 152.393 31.9043C152.012 32.1621 151.821 32.5547 151.821 33.082C151.821 33.8379 152.255 34.2158 153.122 34.2158C153.743 34.2158 154.238 34.0371 154.607 33.6797C154.982 33.3223 155.17 32.8477 155.17 32.2559V31.4473ZM102.075 50.2334C101.05 50.2334 100.256 50.6201 99.6934 51.3936C99.1309 52.1611 98.8496 53.2334 98.8496 54.6104C98.8496 57.4756 99.9248 58.9082 102.075 58.9082C102.978 58.9082 104.07 58.6826 105.354 58.2314V60.5166C104.299 60.9561 103.121 61.1758 101.82 61.1758C99.9512 61.1758 98.5215 60.6104 97.5312 59.4795C96.541 58.3428 96.0459 56.7139 96.0459 54.5928C96.0459 53.2568 96.2891 52.0879 96.7754 51.0859C97.2617 50.0781 97.959 49.3076 98.8672 48.7744C99.7812 48.2354 100.851 47.9658 102.075 47.9658C103.323 47.9658 104.577 48.2676 105.837 48.8711L104.958 51.0859C104.478 50.8574 103.994 50.6582 103.508 50.4883C103.021 50.3184 102.544 50.2334 102.075 50.2334ZM110.021 56.0693C110.021 57.042 110.179 57.7773 110.495 58.2754C110.817 58.7734 111.339 59.0225 112.06 59.0225C112.774 59.0225 113.287 58.7764 113.598 58.2842C113.914 57.7861 114.072 57.0479 114.072 56.0693C114.072 55.0967 113.914 54.3672 113.598 53.8809C113.281 53.3945 112.763 53.1514 112.042 53.1514C111.327 53.1514 110.812 53.3945 110.495 53.8809C110.179 54.3613 110.021 55.0908 110.021 56.0693ZM116.814 56.0693C116.814 57.6689 116.393 58.9199 115.549 59.8223C114.705 60.7246 113.53 61.1758 112.024 61.1758C111.081 61.1758 110.249 60.9707 109.528 60.5605C108.808 60.1445 108.254 59.5498 107.867 58.7764C107.48 58.0029 107.287 57.1006 107.287 56.0693C107.287 54.4639 107.706 53.2158 108.544 52.3252C109.382 51.4346 110.56 50.9893 112.077 50.9893C113.021 50.9893 113.853 51.1943 114.573 51.6045C115.294 52.0146 115.848 52.6035 116.234 53.3711C116.621 54.1387 116.814 55.0381 116.814 56.0693ZM127.827 61H125.146V53.1865H122.677C122.489 55.3838 122.261 57.0244 121.991 58.1084C121.722 59.1865 121.361 59.9688 120.91 60.4551C120.465 60.9355 119.879 61.1758 119.152 61.1758C118.531 61.1758 118.021 61.082 117.623 60.8945V58.75C117.91 58.8672 118.197 58.9258 118.484 58.9258C118.818 58.9258 119.097 58.6855 119.319 58.2051C119.548 57.7246 119.75 56.9248 119.926 55.8057C120.107 54.6807 120.263 53.1367 120.392 51.1738H127.827V61ZM132.784 56.0693C132.784 57.042 132.942 57.7773 133.259 58.2754C133.581 58.7734 134.103 59.0225 134.823 59.0225C135.538 59.0225 136.051 58.7764 136.361 58.2842C136.678 57.7861 136.836 57.0479 136.836 56.0693C136.836 55.0967 136.678 54.3672 136.361 53.8809C136.045 53.3945 135.526 53.1514 134.806 53.1514C134.091 53.1514 133.575 53.3945 133.259 53.8809C132.942 54.3613 132.784 55.0908 132.784 56.0693ZM139.578 56.0693C139.578 57.6689 139.156 58.9199 138.312 59.8223C137.469 60.7246 136.294 61.1758 134.788 61.1758C133.845 61.1758 133.013 60.9707 132.292 60.5605C131.571 60.1445 131.018 59.5498 130.631 58.7764C130.244 58.0029 130.051 57.1006 130.051 56.0693C130.051 54.4639 130.47 53.2158 131.308 52.3252C132.146 51.4346 133.323 50.9893 134.841 50.9893C135.784 50.9893 136.616 51.1943 137.337 51.6045C138.058 52.0146 138.611 52.6035 138.998 53.3711C139.385 54.1387 139.578 55.0381 139.578 56.0693ZM150.863 53.749C150.863 54.2764 150.696 54.7275 150.362 55.1025C150.034 55.4717 149.548 55.709 148.903 55.8145V55.8848C149.601 55.9668 150.151 56.207 150.556 56.6055C150.966 56.998 151.171 57.4844 151.171 58.0645C151.171 59.0195 150.796 59.749 150.046 60.2529C149.296 60.751 148.224 61 146.829 61H141.793V51.1738H146.829C148.177 51.1738 149.185 51.3936 149.853 51.833C150.526 52.2666 150.863 52.9053 150.863 53.749ZM148.394 57.9238C148.394 57.5371 148.244 57.2588 147.945 57.0889C147.646 56.9131 147.198 56.8252 146.601 56.8252H144.474V59.1455H146.653C147.222 59.1455 147.652 59.04 147.945 58.8291C148.244 58.6123 148.394 58.3105 148.394 57.9238ZM148.147 53.96C148.147 53.3623 147.673 53.0635 146.724 53.0635H144.474V55.0059H146.416C146.984 55.0059 147.415 54.9238 147.708 54.7598C148.001 54.5957 148.147 54.3291 148.147 53.96ZM157.376 52.8965C156.808 52.8965 156.362 53.0781 156.04 53.4414C155.718 53.7988 155.533 54.3086 155.486 54.9707H159.248C159.236 54.3086 159.063 53.7988 158.729 53.4414C158.396 53.0781 157.944 52.8965 157.376 52.8965ZM157.754 61.1758C156.172 61.1758 154.936 60.7393 154.045 59.8662C153.154 58.9932 152.709 57.7568 152.709 56.1572C152.709 54.5107 153.119 53.2393 153.939 52.3428C154.766 51.4404 155.905 50.9893 157.358 50.9893C158.747 50.9893 159.828 51.3848 160.602 52.1758C161.375 52.9668 161.762 54.0596 161.762 55.4541V56.7549H155.425C155.454 57.5166 155.68 58.1113 156.102 58.5391C156.523 58.9668 157.115 59.1807 157.877 59.1807C158.469 59.1807 159.028 59.1191 159.556 58.9961C160.083 58.873 160.634 58.6768 161.208 58.4072V60.4814C160.739 60.7158 160.238 60.8887 159.705 61C159.172 61.1172 158.521 61.1758 157.754 61.1758ZM173.231 59.04H174.664V64.5244H172.256V61H163.941V51.1738H166.622V58.9873H170.542V51.1738H173.231V59.04ZM182.776 51.1738H185.729L181.836 55.8848L186.072 61H183.031L179.015 56.0166V61H176.334V51.1738H179.015V55.9463L182.776 51.1738ZM190.071 51.1738V55.0586C190.071 55.4688 190.004 56.4707 189.869 58.0645L194.404 51.1738H197.63V61H195.037V57.0801C195.037 56.3828 195.096 55.3984 195.213 54.127L190.695 61H187.479V51.1738H190.071ZM202.464 55.9814L199.3 51.1738H202.341L204.248 54.3027L206.173 51.1738H209.214L206.015 55.9814L209.363 61H206.313L204.248 57.6338L202.174 61H199.133L202.464 55.9814ZM229.104 56.0693C229.104 57.6807 228.696 58.9346 227.882 59.8311C227.067 60.7275 225.939 61.1758 224.498 61.1758C223.203 61.1758 222.166 60.8125 221.387 60.0859C220.613 59.3594 220.145 58.3135 219.98 56.9482H218.214V61H215.533V51.1738H218.214V54.9531H220.016C220.186 53.6992 220.669 52.7266 221.466 52.0352C222.269 51.3379 223.297 50.9893 224.551 50.9893C225.939 50.9893 227.044 51.4463 227.864 52.3604C228.69 53.2686 229.104 54.5049 229.104 56.0693ZM222.679 56.0693C222.679 57.0479 222.822 57.7861 223.109 58.2842C223.396 58.7764 223.871 59.0225 224.533 59.0225C225.184 59.0225 225.652 58.7764 225.939 58.2842C226.227 57.7861 226.37 57.0479 226.37 56.0693C226.37 55.0908 226.224 54.3613 225.931 53.8809C225.644 53.3945 225.172 53.1514 224.516 53.1514C223.865 53.1514 223.396 53.3945 223.109 53.8809C222.822 54.3672 222.679 55.0967 222.679 56.0693ZM233.999 51.1738V54.9531H237.743V51.1738H240.424V61H237.743V56.9482H233.999V61H231.318V51.1738H233.999ZM250.021 51.1738V53.1865H245.917V61H243.236V51.1738H250.021Z" fill="white"/>
</svg>
